<svg width="207" height="20" viewBox="0 0 207 20" fill="none" xmlns="http://www.w3.org/2000/svg">
<g id="Boriga Baraka">
<path id="Vector" d="M206.746 14.2611H195.41C194.306 14.2611 193.459 14.223 192.868 14.1469C191.84 13.9946 191.108 13.671 190.67 13.176C190.232 12.6811 190.013 11.9196 190.013 10.8916V10.3776C190.013 9.33057 190.232 8.61669 190.67 8.23596C191.069 7.91233 191.802 7.72196 192.868 7.66485C193.192 7.64582 194.039 7.6363 195.41 7.6363H201.349C201.349 7.10327 201.178 6.77012 200.835 6.63687C200.664 6.56072 200.302 6.52264 199.75 6.52264H190.67V3.32446H201.321C202.406 3.32446 203.253 3.37206 203.862 3.46724C204.89 3.6005 205.623 3.9146 206.061 4.40956C206.518 4.90452 206.746 5.66599 206.746 6.69398V14.2611ZM201.349 11.0344V9.74938H195.753C195.429 9.74938 195.267 9.96831 195.267 10.4062C195.267 10.825 195.429 11.0344 195.753 11.0344H201.349Z" fill="white"/>
<path id="Vector_2" d="M189.945 3.32446L184.976 7.0652C186.518 7.16038 187.546 7.45545 188.06 7.95041C188.574 8.42633 188.831 9.23539 188.831 10.3776V14.2611H183.463V11.2914C183.463 10.8345 183.291 10.606 182.949 10.606H177.066V14.2611H171.669V0.126282H177.066V8.7214L182.892 3.32446H189.945Z" fill="white"/>
<path id="Vector_3" d="M170.132 14.2611H158.796C157.691 14.2611 156.844 14.223 156.254 14.1469C155.226 13.9946 154.493 13.671 154.055 13.176C153.618 12.6811 153.399 11.9196 153.399 10.8916V10.3776C153.399 9.33057 153.618 8.61669 154.055 8.23596C154.455 7.91233 155.188 7.72196 156.254 7.66485C156.578 7.64582 157.425 7.6363 158.796 7.6363H164.735C164.735 7.10327 164.564 6.77012 164.221 6.63687C164.05 6.56072 163.688 6.52264 163.136 6.52264H154.055V3.32446H164.707C165.792 3.32446 166.639 3.37206 167.248 3.46724C168.276 3.6005 169.009 3.9146 169.447 4.40956C169.904 4.90452 170.132 5.66599 170.132 6.69398V14.2611ZM164.735 11.0344V9.74938H159.138C158.815 9.74938 158.653 9.96831 158.653 10.4062C158.653 10.825 158.815 11.0344 159.138 11.0344H164.735Z" fill="white"/>
<path id="Vector_4" d="M152.542 6.92242H147.088C146.403 6.92242 146.05 6.92242 146.031 6.92242C145.689 6.99857 145.517 7.23653 145.517 7.6363V14.2611H140.12V3.32446H145.517V4.03834C145.803 3.56242 146.488 3.32446 147.573 3.32446H152.542V6.92242Z" fill="white"/>
<path id="Vector_5" d="M139.011 14.2611H127.675C126.571 14.2611 125.724 14.223 125.134 14.1469C124.106 13.9946 123.373 13.671 122.935 13.176C122.497 12.6811 122.278 11.9196 122.278 10.8916V10.3776C122.278 9.33057 122.497 8.61669 122.935 8.23596C123.335 7.91233 124.068 7.72196 125.134 7.66485C125.457 7.64582 126.304 7.6363 127.675 7.6363H133.614C133.614 7.10327 133.443 6.77012 133.1 6.63687C132.929 6.56072 132.567 6.52264 132.015 6.52264H122.935V3.32446H133.586C134.671 3.32446 135.518 3.37206 136.127 3.46724C137.155 3.6005 137.888 3.9146 138.326 4.40956C138.783 4.90452 139.011 5.66599 139.011 6.69398V14.2611ZM133.614 11.0344V9.74938H128.018C127.694 9.74938 127.532 9.96831 127.532 10.4062C127.532 10.825 127.694 11.0344 128.018 11.0344H133.614Z" fill="white"/>
<path id="Vector_6" d="M120.641 5.60888C120.641 6.40843 120.251 6.92242 119.47 7.15086C120.251 7.49352 120.641 8.02655 120.641 8.74995V10.8916C120.641 11.9196 120.413 12.6811 119.956 13.176C119.518 13.671 118.785 13.9946 117.757 14.1469C117.167 14.223 116.32 14.2611 115.216 14.2611H103.679V0.126282H115.216C116.206 0.126282 117.053 0.173874 117.757 0.269059C118.804 0.421353 119.547 0.744978 119.984 1.23993C120.422 1.71586 120.641 2.46781 120.641 3.4958V5.60888ZM113.702 3.72424H109.105V5.38044H114.53C115.082 5.38044 115.359 5.08537 115.359 4.49523C115.359 4.26679 115.301 4.08594 115.187 3.95268C115.073 3.80038 114.578 3.72424 113.702 3.72424ZM114.53 8.9784H109.105V10.6632H113.702C114.311 10.6632 114.673 10.6536 114.787 10.6346C115.168 10.5394 115.359 10.2919 115.359 9.89216C115.359 9.30202 115.082 8.99743 114.53 8.9784Z" fill="white"/>
<path id="Vector_7" d="M92.3859 14.2611H81.0495C79.9454 14.2611 79.0982 14.223 78.5081 14.1469C77.4801 13.9946 76.7472 13.671 76.3094 13.176C75.8715 12.6811 75.6526 11.9196 75.6526 10.8916V10.3776C75.6526 9.33057 75.8715 8.61669 76.3094 8.23596C76.7091 7.91233 77.442 7.72196 78.5081 7.66485C78.8317 7.64582 79.6789 7.6363 81.0495 7.6363H86.989C86.989 7.10327 86.8177 6.77012 86.475 6.63687C86.3037 6.56072 85.942 6.52264 85.3899 6.52264H76.3094V3.32446H86.9604C88.0455 3.32446 88.8927 3.37206 89.5019 3.46724C90.5298 3.6005 91.2628 3.9146 91.7006 4.40956C92.1575 4.90452 92.3859 5.66599 92.3859 6.69398V14.2611ZM86.989 11.0344V9.74938H81.3922C81.0686 9.74938 80.9067 9.96831 80.9067 10.4062C80.9067 10.825 81.0686 11.0344 81.3922 11.0344H86.989Z" fill="white"/>
<path id="Vector_8" d="M74.5097 15.746C74.5097 16.774 74.2813 17.5354 73.8244 18.0304C73.3866 18.5253 72.6537 18.849 71.6257 19.0013C71.0355 19.0774 70.1884 19.1155 69.0843 19.1155H65.4006V15.5175H68.5988C68.9415 15.4604 69.1128 15.2225 69.1128 14.8037V14.2611H63.259C62.1549 14.2611 61.3077 14.223 60.7176 14.1469C59.6896 13.9946 58.9567 13.671 58.5188 13.176C58.081 12.6811 57.8621 11.9101 57.8621 10.863V6.69398C57.8621 5.66599 58.081 4.90452 58.5188 4.40956C58.9567 3.9146 59.6896 3.6005 60.7176 3.46724C61.3458 3.37206 62.1929 3.32446 63.259 3.32446H74.5097V15.746ZM69.1128 6.92242H64.801C64.0966 6.92242 63.6588 6.94146 63.4874 6.97953C63.3351 7.0176 63.259 7.23653 63.259 7.6363V9.94927C63.259 10.4062 63.497 10.6346 63.9729 10.6346H69.1128V6.92242Z" fill="white"/>
<path id="Vector_9" d="M56.6887 3.35302H51.2632V0.126282H56.6887V3.35302ZM56.6887 14.2611H51.2632V4.35245H56.6887V14.2611Z" fill="white"/>
<path id="Vector_10" d="M49.9493 6.92242H44.4953C43.81 6.92242 43.4578 6.92242 43.4388 6.92242C43.0961 6.99857 42.9248 7.23653 42.9248 7.6363V14.2611H37.5278V3.32446H42.9248V4.03834C43.2103 3.56242 43.8956 3.32446 44.9807 3.32446H49.9493V6.92242Z" fill="white"/>
<path id="Vector_11" d="M36.6011 10.8916C36.6011 11.9196 36.3727 12.6811 35.9158 13.176C35.4779 13.671 34.745 13.9946 33.717 14.1469C33.1459 14.223 32.2988 14.2611 31.1756 14.2611H24.8078C23.6846 14.2611 22.828 14.223 22.2378 14.1469C21.2289 13.9946 20.496 13.671 20.0391 13.176C19.6012 12.6811 19.3823 11.9196 19.3823 10.8916V6.69398C19.3823 5.68503 19.6012 4.93307 20.0391 4.43812C20.496 3.92412 21.2289 3.6005 22.2378 3.46724C22.828 3.37206 23.6846 3.32446 24.8078 3.32446H31.1756C32.1465 3.32446 32.9556 3.37206 33.6028 3.46724C34.6689 3.6005 35.4303 3.9146 35.8872 4.40956C36.3632 4.88548 36.6011 5.64695 36.6011 6.69398V10.8916ZM31.2042 9.97783V7.6363C31.2042 7.23653 31.0424 6.99857 30.7187 6.92242H29.6336H25.5502C25.0363 6.96049 24.7793 7.19845 24.7793 7.6363V9.97783C24.7793 10.2634 24.8268 10.4442 24.922 10.5204C25.0172 10.5965 25.2266 10.6441 25.5502 10.6631H29.6336C30.5284 10.6631 31.0233 10.5965 31.1185 10.4633C31.1756 10.3871 31.2042 10.2253 31.2042 9.97783Z" fill="white"/>
<path id="Vector_12" d="M17.6027 5.60888C17.6027 6.40843 17.2124 6.92242 16.4319 7.15086C17.2124 7.49352 17.6027 8.02655 17.6027 8.74995V10.8916C17.6027 11.9196 17.3742 12.6811 16.9173 13.176C16.4795 13.671 15.7466 13.9946 14.7186 14.1469C14.1284 14.223 13.2813 14.2611 12.1772 14.2611H0.640869V0.126282H12.1772C13.1671 0.126282 14.0142 0.173874 14.7186 0.269059C15.7656 0.421353 16.508 0.744978 16.9459 1.23993C17.3837 1.71586 17.6027 2.46781 17.6027 3.4958V5.60888ZM10.6637 3.72424H6.06636V5.38044H11.4918C12.0439 5.38044 12.3199 5.08537 12.3199 4.49523C12.3199 4.26679 12.2628 4.08594 12.1486 3.95268C12.0344 3.80038 11.5394 3.72424 10.6637 3.72424ZM11.4918 8.9784H6.06636V10.6632H10.6637C11.2729 10.6632 11.6346 10.6536 11.7488 10.6346C12.1296 10.5394 12.3199 10.2919 12.3199 9.89216C12.3199 9.30202 12.0439 8.99743 11.4918 8.9784Z" fill="white"/>
</g>
</svg>
