<svg width="24" height="25" viewBox="0 0 24 25" fill="none" xmlns="http://www.w3.org/2000/svg">
<g id="Icon/Outline/user">
<path id="Icon (Stroke)" fill-rule="evenodd" clip-rule="evenodd" d="M12 4.9375C10.3431 4.9375 9 6.28065 9 7.9375C9 9.59435 10.3431 10.9375 12 10.9375C13.6569 10.9375 15 9.59435 15 7.9375C15 6.28065 13.6569 4.9375 12 4.9375ZM7 7.9375C7 5.17608 9.23858 2.9375 12 2.9375C14.7614 2.9375 17 5.17608 17 7.9375C17 10.6989 14.7614 12.9375 12 12.9375C9.23858 12.9375 7 10.6989 7 7.9375ZM6.08296 20.9375H17.917C17.441 18.0998 14.973 15.9375 12 15.9375C9.027 15.9375 6.55904 18.0998 6.08296 20.9375ZM4 21.9375C4 17.5192 7.58172 13.9375 12 13.9375C16.4183 13.9375 20 17.5192 20 21.9375C20 22.4898 19.5523 22.9375 19 22.9375H5C4.44772 22.9375 4 22.4898 4 21.9375Z" fill="#F2F2F2"/>
</g>
</svg>
