<svg width="15" height="27" viewBox="0 0 15 27" fill="none" xmlns="http://www.w3.org/2000/svg">
<g id="Group">
<path id="Vector" d="M7.48316 26.1169L14.7373 13.4303H0.220642L7.48316 26.1169Z" fill="url(#paint0_radial_64_7739)"/>
<path id="Vector_2" d="M0.220642 13.4303H14.7373L7.48316 0.743774L0.220642 13.4303Z" fill="url(#paint1_radial_64_7739)"/>
<g id="Group_2">
<path id="Vector_3" d="M1.34961 13.4304L7.48316 24.1463V13.4304H1.34961Z" fill="url(#paint2_linear_64_7739)"/>
<path id="Vector_4" d="M7.48316 2.7229L1.34961 13.4304H7.48316V2.7229Z" fill="url(#paint3_linear_64_7739)"/>
<path id="Vector_5" d="M7.48315 13.4304V24.1463L13.6083 13.4304H7.48315Z" fill="url(#paint4_linear_64_7739)"/>
<path id="Vector_6" d="M13.6083 13.4304L7.48315 2.7229V13.4304H13.6083Z" fill="url(#paint5_linear_64_7739)"/>
</g>
</g>
<defs>
<radialGradient id="paint0_radial_64_7739" cx="0" cy="0" r="1" gradientUnits="userSpaceOnUse" gradientTransform="translate(8.11218 4.71784) scale(14.7771 14.8341)">
<stop stop-color="#2B364C"/>
<stop offset="0.38" stop-color="#334159"/>
<stop offset="1" stop-color="#1E2738"/>
</radialGradient>
<radialGradient id="paint1_radial_64_7739" cx="0" cy="0" r="1" gradientUnits="userSpaceOnUse" gradientTransform="translate(8.12684 6.00312) scale(6.79239 6.81861)">
<stop stop-color="#3C4B65"/>
<stop offset="0.25" stop-color="#445572"/>
<stop offset="0.47" stop-color="#3C4B65"/>
<stop offset="1" stop-color="#334159"/>
</radialGradient>
<linearGradient id="paint2_linear_64_7739" x1="10.8195" y1="13.3036" x2="3.00942" y2="19.9385" gradientUnits="userSpaceOnUse">
<stop stop-color="#C1C1C1"/>
<stop offset="0.96" stop-color="#8C8C8C"/>
<stop offset="1" stop-color="#E68316"/>
</linearGradient>
<linearGradient id="paint3_linear_64_7739" x1="10.7943" y1="13.1259" x2="0.476769" y2="5.0282" gradientUnits="userSpaceOnUse">
<stop stop-color="#E8E8E8"/>
<stop offset="1" stop-color="#C1C1C1"/>
</linearGradient>
<linearGradient id="paint4_linear_64_7739" x1="6.51426" y1="13.8787" x2="12.9637" y2="21.6692" gradientUnits="userSpaceOnUse">
<stop stop-color="#ADADAD"/>
<stop offset="1" stop-color="#6B6B6B"/>
</linearGradient>
<linearGradient id="paint5_linear_64_7739" x1="6.24465" y1="10.9692" x2="11.9875" y2="7.13292" gradientUnits="userSpaceOnUse">
<stop stop-color="#FCFCFC"/>
<stop offset="1" stop-color="#D5D5D5"/>
</linearGradient>
</defs>
</svg>
